<mxfile host="app.diagrams.net" modified="2023-10-02T16:32:05.789Z" agent="Mozilla/5.0 (X11; Ubuntu; Linux x86_64; rv:109.0) Gecko/20100101 Firefox/117.0" etag="4PfMxI8l1pA0fZtqTmvk" version="21.1.2" type="device">
  <diagram name="Page-1" id="ik5RRp6DC9YA5FKIOGa2">
    <mxGraphModel dx="989" dy="547" grid="1" gridSize="10" guides="1" tooltips="1" connect="1" arrows="1" fold="1" page="1" pageScale="1" pageWidth="827" pageHeight="1169" math="0" shadow="0">
      <root>
        <mxCell id="0" />
        <mxCell id="1" parent="0" />
        <mxCell id="0IdBzElZXlzrHOkdGmgd-1" value="" style="shape=actor;whiteSpace=wrap;html=1;fillColor=#FF3333;strokeColor=#b85450;" vertex="1" parent="1">
          <mxGeometry x="89" y="120" width="40" height="40" as="geometry" />
        </mxCell>
        <mxCell id="0IdBzElZXlzrHOkdGmgd-9" value="" style="whiteSpace=wrap;html=1;shape=mxgraph.basic.cloud_callout;flipH=1;" vertex="1" parent="1">
          <mxGeometry x="49" y="100" width="40" height="40" as="geometry" />
        </mxCell>
        <mxCell id="0IdBzElZXlzrHOkdGmgd-11" value="&lt;font style=&quot;font-size: 20px;&quot;&gt;1&lt;/font&gt;" style="text;html=1;align=center;verticalAlign=middle;resizable=0;points=[];autosize=1;strokeColor=none;fillColor=none;" vertex="1" parent="1">
          <mxGeometry x="53" y="98" width="30" height="40" as="geometry" />
        </mxCell>
        <mxCell id="0IdBzElZXlzrHOkdGmgd-12" value="" style="rounded=1;whiteSpace=wrap;html=1;" vertex="1" parent="1">
          <mxGeometry x="99" y="139" width="20" height="30" as="geometry" />
        </mxCell>
        <mxCell id="0IdBzElZXlzrHOkdGmgd-13" value="&lt;font style=&quot;font-size: 20px;&quot;&gt;4&lt;/font&gt;" style="text;html=1;align=center;verticalAlign=middle;resizable=0;points=[];autosize=1;strokeColor=none;fillColor=none;" vertex="1" parent="1">
          <mxGeometry x="93" y="136" width="30" height="40" as="geometry" />
        </mxCell>
        <mxCell id="0IdBzElZXlzrHOkdGmgd-14" value="" style="shape=actor;whiteSpace=wrap;html=1;fillColor=#97D077;strokeColor=#82b366;" vertex="1" parent="1">
          <mxGeometry x="59" y="200" width="40" height="40" as="geometry" />
        </mxCell>
        <mxCell id="0IdBzElZXlzrHOkdGmgd-15" value="" style="whiteSpace=wrap;html=1;shape=mxgraph.basic.cloud_callout;flipH=1;" vertex="1" parent="1">
          <mxGeometry x="19" y="180" width="40" height="40" as="geometry" />
        </mxCell>
        <mxCell id="0IdBzElZXlzrHOkdGmgd-16" value="&lt;font style=&quot;font-size: 20px;&quot;&gt;3&lt;/font&gt;" style="text;html=1;align=center;verticalAlign=middle;resizable=0;points=[];autosize=1;strokeColor=none;fillColor=none;" vertex="1" parent="1">
          <mxGeometry x="23" y="178" width="30" height="40" as="geometry" />
        </mxCell>
        <mxCell id="0IdBzElZXlzrHOkdGmgd-17" value="" style="rounded=1;whiteSpace=wrap;html=1;" vertex="1" parent="1">
          <mxGeometry x="70" y="221" width="20" height="30" as="geometry" />
        </mxCell>
        <mxCell id="0IdBzElZXlzrHOkdGmgd-18" value="&lt;font style=&quot;font-size: 20px;&quot;&gt;3&lt;/font&gt;" style="text;html=1;align=center;verticalAlign=middle;resizable=0;points=[];autosize=1;strokeColor=none;fillColor=none;" vertex="1" parent="1">
          <mxGeometry x="64" y="218" width="30" height="40" as="geometry" />
        </mxCell>
        <mxCell id="0IdBzElZXlzrHOkdGmgd-19" value="" style="shape=actor;whiteSpace=wrap;html=1;flipH=0;fillColor=#FF3333;strokeColor=#b85450;" vertex="1" parent="1">
          <mxGeometry x="168" y="120" width="40" height="40" as="geometry" />
        </mxCell>
        <mxCell id="0IdBzElZXlzrHOkdGmgd-20" value="" style="whiteSpace=wrap;html=1;shape=mxgraph.basic.cloud_callout;flipH=0;" vertex="1" parent="1">
          <mxGeometry x="208" y="100" width="40" height="40" as="geometry" />
        </mxCell>
        <mxCell id="0IdBzElZXlzrHOkdGmgd-21" value="&lt;font style=&quot;font-size: 20px;&quot;&gt;2&lt;/font&gt;" style="text;html=1;align=center;verticalAlign=middle;resizable=0;points=[];autosize=1;strokeColor=none;fillColor=none;flipH=0;" vertex="1" parent="1">
          <mxGeometry x="212" y="98" width="30" height="40" as="geometry" />
        </mxCell>
        <mxCell id="0IdBzElZXlzrHOkdGmgd-22" value="" style="rounded=1;whiteSpace=wrap;html=1;flipH=0;" vertex="1" parent="1">
          <mxGeometry x="178" y="141" width="20" height="30" as="geometry" />
        </mxCell>
        <mxCell id="0IdBzElZXlzrHOkdGmgd-23" value="&lt;font style=&quot;font-size: 20px;&quot;&gt;1&lt;/font&gt;" style="text;html=1;align=center;verticalAlign=middle;resizable=0;points=[];autosize=1;strokeColor=none;fillColor=none;flipH=0;" vertex="1" parent="1">
          <mxGeometry x="172" y="138" width="30" height="40" as="geometry" />
        </mxCell>
        <mxCell id="0IdBzElZXlzrHOkdGmgd-24" value="" style="shape=actor;whiteSpace=wrap;html=1;flipH=0;fillColor=#FF3333;strokeColor=#b85450;" vertex="1" parent="1">
          <mxGeometry x="199" y="200" width="40" height="40" as="geometry" />
        </mxCell>
        <mxCell id="0IdBzElZXlzrHOkdGmgd-25" value="" style="whiteSpace=wrap;html=1;shape=mxgraph.basic.cloud_callout;flipH=0;" vertex="1" parent="1">
          <mxGeometry x="239" y="180" width="40" height="40" as="geometry" />
        </mxCell>
        <mxCell id="0IdBzElZXlzrHOkdGmgd-26" value="&lt;font style=&quot;font-size: 20px;&quot;&gt;4&lt;/font&gt;" style="text;html=1;align=center;verticalAlign=middle;resizable=0;points=[];autosize=1;strokeColor=none;fillColor=none;flipH=0;" vertex="1" parent="1">
          <mxGeometry x="243" y="178" width="30" height="40" as="geometry" />
        </mxCell>
        <mxCell id="0IdBzElZXlzrHOkdGmgd-27" value="" style="rounded=1;whiteSpace=wrap;html=1;flipH=0;" vertex="1" parent="1">
          <mxGeometry x="210" y="219" width="20" height="30" as="geometry" />
        </mxCell>
        <mxCell id="0IdBzElZXlzrHOkdGmgd-28" value="&lt;font style=&quot;font-size: 20px;&quot;&gt;2&lt;/font&gt;" style="text;html=1;align=center;verticalAlign=middle;resizable=0;points=[];autosize=1;strokeColor=none;fillColor=none;flipH=0;" vertex="1" parent="1">
          <mxGeometry x="204" y="216" width="30" height="40" as="geometry" />
        </mxCell>
        <mxCell id="0IdBzElZXlzrHOkdGmgd-51" value="" style="endArrow=blockThin;startArrow=blockThin;html=1;rounded=0;endFill=1;strokeWidth=1;startFill=1;jumpSize=6;startSize=4;endSize=4;" edge="1" parent="1">
          <mxGeometry width="50" height="50" relative="1" as="geometry">
            <mxPoint x="138" y="140" as="sourcePoint" />
            <mxPoint x="158" y="140" as="targetPoint" />
          </mxGeometry>
        </mxCell>
        <mxCell id="0IdBzElZXlzrHOkdGmgd-228" value="" style="shape=actor;whiteSpace=wrap;html=1;flipH=0;fillColor=#97D077;strokeColor=#82b366;" vertex="1" parent="1">
          <mxGeometry x="129" y="270" width="40" height="40" as="geometry" />
        </mxCell>
        <mxCell id="0IdBzElZXlzrHOkdGmgd-229" value="" style="whiteSpace=wrap;html=1;shape=mxgraph.basic.cloud_callout;flipH=0;flipV=1;" vertex="1" parent="1">
          <mxGeometry x="169" y="290.5" width="40" height="40" as="geometry" />
        </mxCell>
        <mxCell id="0IdBzElZXlzrHOkdGmgd-230" value="&lt;font style=&quot;font-size: 20px;&quot;&gt;5&lt;/font&gt;" style="text;html=1;align=center;verticalAlign=middle;resizable=0;points=[];autosize=1;strokeColor=none;fillColor=none;flipH=0;" vertex="1" parent="1">
          <mxGeometry x="172" y="297.5" width="30" height="40" as="geometry" />
        </mxCell>
        <mxCell id="0IdBzElZXlzrHOkdGmgd-231" value="" style="rounded=1;whiteSpace=wrap;html=1;flipH=0;" vertex="1" parent="1">
          <mxGeometry x="139" y="293.5" width="20" height="30" as="geometry" />
        </mxCell>
        <mxCell id="0IdBzElZXlzrHOkdGmgd-232" value="&lt;font style=&quot;font-size: 20px;&quot;&gt;5&lt;/font&gt;" style="text;html=1;align=center;verticalAlign=middle;resizable=0;points=[];autosize=1;strokeColor=none;fillColor=none;" vertex="1" parent="1">
          <mxGeometry x="134" y="290.5" width="30" height="40" as="geometry" />
        </mxCell>
        <mxCell id="0IdBzElZXlzrHOkdGmgd-234" value="" style="shape=actor;whiteSpace=wrap;html=1;fillColor=#97D077;strokeColor=#82b366;" vertex="1" parent="1">
          <mxGeometry x="390" y="121" width="40" height="40" as="geometry" />
        </mxCell>
        <mxCell id="0IdBzElZXlzrHOkdGmgd-235" value="" style="whiteSpace=wrap;html=1;shape=mxgraph.basic.cloud_callout;flipH=1;" vertex="1" parent="1">
          <mxGeometry x="350" y="101" width="40" height="40" as="geometry" />
        </mxCell>
        <mxCell id="0IdBzElZXlzrHOkdGmgd-236" value="&lt;font style=&quot;font-size: 20px;&quot;&gt;1&lt;/font&gt;" style="text;html=1;align=center;verticalAlign=middle;resizable=0;points=[];autosize=1;strokeColor=none;fillColor=none;" vertex="1" parent="1">
          <mxGeometry x="354" y="99" width="30" height="40" as="geometry" />
        </mxCell>
        <mxCell id="0IdBzElZXlzrHOkdGmgd-237" value="" style="rounded=1;whiteSpace=wrap;html=1;" vertex="1" parent="1">
          <mxGeometry x="400" y="141" width="20" height="30" as="geometry" />
        </mxCell>
        <mxCell id="0IdBzElZXlzrHOkdGmgd-238" value="&lt;font style=&quot;font-size: 20px;&quot;&gt;1&lt;/font&gt;" style="text;html=1;align=center;verticalAlign=middle;resizable=0;points=[];autosize=1;strokeColor=none;fillColor=none;" vertex="1" parent="1">
          <mxGeometry x="394" y="138" width="30" height="40" as="geometry" />
        </mxCell>
        <mxCell id="0IdBzElZXlzrHOkdGmgd-239" value="" style="shape=actor;whiteSpace=wrap;html=1;fillColor=#97D077;strokeColor=#82b366;" vertex="1" parent="1">
          <mxGeometry x="360" y="201" width="40" height="40" as="geometry" />
        </mxCell>
        <mxCell id="0IdBzElZXlzrHOkdGmgd-240" value="" style="whiteSpace=wrap;html=1;shape=mxgraph.basic.cloud_callout;flipH=1;" vertex="1" parent="1">
          <mxGeometry x="320" y="182" width="40" height="40" as="geometry" />
        </mxCell>
        <mxCell id="0IdBzElZXlzrHOkdGmgd-241" value="&lt;font style=&quot;font-size: 20px;&quot;&gt;3&lt;/font&gt;" style="text;html=1;align=center;verticalAlign=middle;resizable=0;points=[];autosize=1;strokeColor=none;fillColor=none;" vertex="1" parent="1">
          <mxGeometry x="324" y="179" width="30" height="40" as="geometry" />
        </mxCell>
        <mxCell id="0IdBzElZXlzrHOkdGmgd-242" value="" style="rounded=1;whiteSpace=wrap;html=1;" vertex="1" parent="1">
          <mxGeometry x="371" y="221" width="20" height="30" as="geometry" />
        </mxCell>
        <mxCell id="0IdBzElZXlzrHOkdGmgd-243" value="&lt;font style=&quot;font-size: 20px;&quot;&gt;3&lt;/font&gt;" style="text;html=1;align=center;verticalAlign=middle;resizable=0;points=[];autosize=1;strokeColor=none;fillColor=none;" vertex="1" parent="1">
          <mxGeometry x="365" y="218" width="30" height="40" as="geometry" />
        </mxCell>
        <mxCell id="0IdBzElZXlzrHOkdGmgd-244" value="" style="shape=actor;whiteSpace=wrap;html=1;flipH=0;fillColor=#FF3333;strokeColor=#b85450;" vertex="1" parent="1">
          <mxGeometry x="469" y="121" width="40" height="40" as="geometry" />
        </mxCell>
        <mxCell id="0IdBzElZXlzrHOkdGmgd-245" value="" style="whiteSpace=wrap;html=1;shape=mxgraph.basic.cloud_callout;flipH=0;" vertex="1" parent="1">
          <mxGeometry x="509" y="101" width="40" height="40" as="geometry" />
        </mxCell>
        <mxCell id="0IdBzElZXlzrHOkdGmgd-246" value="&lt;font style=&quot;font-size: 20px;&quot;&gt;2&lt;/font&gt;" style="text;html=1;align=center;verticalAlign=middle;resizable=0;points=[];autosize=1;strokeColor=none;fillColor=none;flipH=0;" vertex="1" parent="1">
          <mxGeometry x="513" y="99" width="30" height="40" as="geometry" />
        </mxCell>
        <mxCell id="0IdBzElZXlzrHOkdGmgd-247" value="" style="rounded=1;whiteSpace=wrap;html=1;flipH=0;" vertex="1" parent="1">
          <mxGeometry x="480" y="139" width="20" height="30" as="geometry" />
        </mxCell>
        <mxCell id="0IdBzElZXlzrHOkdGmgd-248" value="&lt;font style=&quot;font-size: 20px;&quot;&gt;4&lt;/font&gt;" style="text;html=1;align=center;verticalAlign=middle;resizable=0;points=[];autosize=1;strokeColor=none;fillColor=none;flipH=0;" vertex="1" parent="1">
          <mxGeometry x="474" y="136" width="30" height="40" as="geometry" />
        </mxCell>
        <mxCell id="0IdBzElZXlzrHOkdGmgd-249" value="" style="shape=actor;whiteSpace=wrap;html=1;flipH=0;fillColor=#FF3333;strokeColor=#b85450;" vertex="1" parent="1">
          <mxGeometry x="500" y="201" width="40" height="40" as="geometry" />
        </mxCell>
        <mxCell id="0IdBzElZXlzrHOkdGmgd-250" value="" style="whiteSpace=wrap;html=1;shape=mxgraph.basic.cloud_callout;flipH=0;" vertex="1" parent="1">
          <mxGeometry x="540" y="182" width="40" height="40" as="geometry" />
        </mxCell>
        <mxCell id="0IdBzElZXlzrHOkdGmgd-251" value="&lt;font style=&quot;font-size: 20px;&quot;&gt;4&lt;/font&gt;" style="text;html=1;align=center;verticalAlign=middle;resizable=0;points=[];autosize=1;strokeColor=none;fillColor=none;flipH=0;" vertex="1" parent="1">
          <mxGeometry x="544" y="179" width="30" height="40" as="geometry" />
        </mxCell>
        <mxCell id="0IdBzElZXlzrHOkdGmgd-252" value="" style="rounded=1;whiteSpace=wrap;html=1;flipH=0;" vertex="1" parent="1">
          <mxGeometry x="510" y="221" width="20" height="30" as="geometry" />
        </mxCell>
        <mxCell id="0IdBzElZXlzrHOkdGmgd-253" value="&lt;font style=&quot;font-size: 20px;&quot;&gt;2&lt;/font&gt;" style="text;html=1;align=center;verticalAlign=middle;resizable=0;points=[];autosize=1;strokeColor=none;fillColor=none;flipH=0;" vertex="1" parent="1">
          <mxGeometry x="504" y="218" width="30" height="40" as="geometry" />
        </mxCell>
        <mxCell id="0IdBzElZXlzrHOkdGmgd-254" value="" style="endArrow=blockThin;startArrow=blockThin;html=1;rounded=0;endFill=1;strokeWidth=1;startFill=1;jumpSize=6;startSize=4;endSize=4;" edge="1" parent="1">
          <mxGeometry width="50" height="50" relative="1" as="geometry">
            <mxPoint x="520" y="199" as="sourcePoint" />
            <mxPoint x="510" y="169" as="targetPoint" />
          </mxGeometry>
        </mxCell>
        <mxCell id="0IdBzElZXlzrHOkdGmgd-255" value="" style="shape=actor;whiteSpace=wrap;html=1;flipH=0;fillColor=#97D077;strokeColor=#82b366;" vertex="1" parent="1">
          <mxGeometry x="430" y="271" width="40" height="40" as="geometry" />
        </mxCell>
        <mxCell id="0IdBzElZXlzrHOkdGmgd-256" value="" style="whiteSpace=wrap;html=1;shape=mxgraph.basic.cloud_callout;flipH=0;flipV=1;" vertex="1" parent="1">
          <mxGeometry x="470" y="291.5" width="40" height="40" as="geometry" />
        </mxCell>
        <mxCell id="0IdBzElZXlzrHOkdGmgd-257" value="&lt;font style=&quot;font-size: 20px;&quot;&gt;5&lt;/font&gt;" style="text;html=1;align=center;verticalAlign=middle;resizable=0;points=[];autosize=1;strokeColor=none;fillColor=none;flipH=0;" vertex="1" parent="1">
          <mxGeometry x="473" y="298.5" width="30" height="40" as="geometry" />
        </mxCell>
        <mxCell id="0IdBzElZXlzrHOkdGmgd-258" value="" style="rounded=1;whiteSpace=wrap;html=1;flipH=0;" vertex="1" parent="1">
          <mxGeometry x="440" y="294.5" width="20" height="30" as="geometry" />
        </mxCell>
        <mxCell id="0IdBzElZXlzrHOkdGmgd-259" value="&lt;font style=&quot;font-size: 20px;&quot;&gt;5&lt;/font&gt;" style="text;html=1;align=center;verticalAlign=middle;resizable=0;points=[];autosize=1;strokeColor=none;fillColor=none;" vertex="1" parent="1">
          <mxGeometry x="435" y="291.5" width="30" height="40" as="geometry" />
        </mxCell>
        <mxCell id="0IdBzElZXlzrHOkdGmgd-261" value="" style="endArrow=none;dashed=1;html=1;rounded=0;" edge="1" parent="1">
          <mxGeometry width="50" height="50" relative="1" as="geometry">
            <mxPoint x="299" y="320" as="sourcePoint" />
            <mxPoint x="298.76" y="98" as="targetPoint" />
          </mxGeometry>
        </mxCell>
        <mxCell id="0IdBzElZXlzrHOkdGmgd-263" value="" style="endArrow=none;dashed=1;html=1;rounded=0;" edge="1" parent="1">
          <mxGeometry width="50" height="50" relative="1" as="geometry">
            <mxPoint x="599" y="320" as="sourcePoint" />
            <mxPoint x="598.76" y="98" as="targetPoint" />
          </mxGeometry>
        </mxCell>
        <mxCell id="0IdBzElZXlzrHOkdGmgd-264" value="" style="shape=actor;whiteSpace=wrap;html=1;fillColor=#97D077;strokeColor=#82b366;" vertex="1" parent="1">
          <mxGeometry x="680" y="120.25" width="40" height="40" as="geometry" />
        </mxCell>
        <mxCell id="0IdBzElZXlzrHOkdGmgd-265" value="" style="whiteSpace=wrap;html=1;shape=mxgraph.basic.cloud_callout;flipH=1;" vertex="1" parent="1">
          <mxGeometry x="640" y="100.25" width="40" height="40" as="geometry" />
        </mxCell>
        <mxCell id="0IdBzElZXlzrHOkdGmgd-266" value="&lt;font style=&quot;font-size: 20px;&quot;&gt;1&lt;/font&gt;" style="text;html=1;align=center;verticalAlign=middle;resizable=0;points=[];autosize=1;strokeColor=none;fillColor=none;" vertex="1" parent="1">
          <mxGeometry x="644" y="98.25" width="30" height="40" as="geometry" />
        </mxCell>
        <mxCell id="0IdBzElZXlzrHOkdGmgd-267" value="" style="rounded=1;whiteSpace=wrap;html=1;" vertex="1" parent="1">
          <mxGeometry x="690" y="141" width="20" height="30" as="geometry" />
        </mxCell>
        <mxCell id="0IdBzElZXlzrHOkdGmgd-268" value="&lt;font style=&quot;font-size: 20px;&quot;&gt;1&lt;/font&gt;" style="text;html=1;align=center;verticalAlign=middle;resizable=0;points=[];autosize=1;strokeColor=none;fillColor=none;" vertex="1" parent="1">
          <mxGeometry x="684" y="138" width="30" height="40" as="geometry" />
        </mxCell>
        <mxCell id="0IdBzElZXlzrHOkdGmgd-269" value="" style="shape=actor;whiteSpace=wrap;html=1;fillColor=#97D077;strokeColor=#82b366;" vertex="1" parent="1">
          <mxGeometry x="650" y="200.25" width="40" height="40" as="geometry" />
        </mxCell>
        <mxCell id="0IdBzElZXlzrHOkdGmgd-270" value="" style="whiteSpace=wrap;html=1;shape=mxgraph.basic.cloud_callout;flipH=1;" vertex="1" parent="1">
          <mxGeometry x="610" y="180.25" width="40" height="40" as="geometry" />
        </mxCell>
        <mxCell id="0IdBzElZXlzrHOkdGmgd-271" value="&lt;font style=&quot;font-size: 20px;&quot;&gt;3&lt;/font&gt;" style="text;html=1;align=center;verticalAlign=middle;resizable=0;points=[];autosize=1;strokeColor=none;fillColor=none;" vertex="1" parent="1">
          <mxGeometry x="614" y="178.25" width="30" height="40" as="geometry" />
        </mxCell>
        <mxCell id="0IdBzElZXlzrHOkdGmgd-272" value="" style="rounded=1;whiteSpace=wrap;html=1;" vertex="1" parent="1">
          <mxGeometry x="661" y="221" width="20" height="30" as="geometry" />
        </mxCell>
        <mxCell id="0IdBzElZXlzrHOkdGmgd-273" value="&lt;font style=&quot;font-size: 20px;&quot;&gt;3&lt;/font&gt;" style="text;html=1;align=center;verticalAlign=middle;resizable=0;points=[];autosize=1;strokeColor=none;fillColor=none;" vertex="1" parent="1">
          <mxGeometry x="655" y="218" width="30" height="40" as="geometry" />
        </mxCell>
        <mxCell id="0IdBzElZXlzrHOkdGmgd-274" value="" style="shape=actor;whiteSpace=wrap;html=1;flipH=0;fillColor=#97D077;strokeColor=#82b366;" vertex="1" parent="1">
          <mxGeometry x="759" y="120.25" width="40" height="40" as="geometry" />
        </mxCell>
        <mxCell id="0IdBzElZXlzrHOkdGmgd-275" value="" style="whiteSpace=wrap;html=1;shape=mxgraph.basic.cloud_callout;flipH=0;" vertex="1" parent="1">
          <mxGeometry x="799" y="100.25" width="40" height="40" as="geometry" />
        </mxCell>
        <mxCell id="0IdBzElZXlzrHOkdGmgd-276" value="&lt;font style=&quot;font-size: 20px;&quot;&gt;2&lt;/font&gt;" style="text;html=1;align=center;verticalAlign=middle;resizable=0;points=[];autosize=1;strokeColor=none;fillColor=none;flipH=0;" vertex="1" parent="1">
          <mxGeometry x="803" y="98.25" width="30" height="40" as="geometry" />
        </mxCell>
        <mxCell id="0IdBzElZXlzrHOkdGmgd-277" value="" style="rounded=1;whiteSpace=wrap;html=1;flipH=0;" vertex="1" parent="1">
          <mxGeometry x="770" y="141.25" width="20" height="30" as="geometry" />
        </mxCell>
        <mxCell id="0IdBzElZXlzrHOkdGmgd-278" value="&lt;font style=&quot;font-size: 20px;&quot;&gt;4&lt;/font&gt;" style="text;html=1;align=center;verticalAlign=middle;resizable=0;points=[];autosize=1;strokeColor=none;fillColor=none;flipH=0;" vertex="1" parent="1">
          <mxGeometry x="764" y="138.25" width="30" height="40" as="geometry" />
        </mxCell>
        <mxCell id="0IdBzElZXlzrHOkdGmgd-279" value="" style="shape=actor;whiteSpace=wrap;html=1;flipH=0;fillColor=#97D077;strokeColor=#82b366;" vertex="1" parent="1">
          <mxGeometry x="790" y="200.25" width="40" height="40" as="geometry" />
        </mxCell>
        <mxCell id="0IdBzElZXlzrHOkdGmgd-280" value="" style="whiteSpace=wrap;html=1;shape=mxgraph.basic.cloud_callout;flipH=0;" vertex="1" parent="1">
          <mxGeometry x="830" y="180.25" width="40" height="40" as="geometry" />
        </mxCell>
        <mxCell id="0IdBzElZXlzrHOkdGmgd-281" value="&lt;font style=&quot;font-size: 20px;&quot;&gt;4&lt;/font&gt;" style="text;html=1;align=center;verticalAlign=middle;resizable=0;points=[];autosize=1;strokeColor=none;fillColor=none;flipH=0;" vertex="1" parent="1">
          <mxGeometry x="834" y="178.25" width="30" height="40" as="geometry" />
        </mxCell>
        <mxCell id="0IdBzElZXlzrHOkdGmgd-282" value="" style="rounded=1;whiteSpace=wrap;html=1;flipH=0;" vertex="1" parent="1">
          <mxGeometry x="800" y="221" width="20" height="30" as="geometry" />
        </mxCell>
        <mxCell id="0IdBzElZXlzrHOkdGmgd-283" value="&lt;font style=&quot;font-size: 20px;&quot;&gt;2&lt;/font&gt;" style="text;html=1;align=center;verticalAlign=middle;resizable=0;points=[];autosize=1;strokeColor=none;fillColor=none;flipH=0;" vertex="1" parent="1">
          <mxGeometry x="794" y="218" width="30" height="40" as="geometry" />
        </mxCell>
        <mxCell id="0IdBzElZXlzrHOkdGmgd-285" value="" style="shape=actor;whiteSpace=wrap;html=1;flipH=0;fillColor=#97D077;strokeColor=#82b366;" vertex="1" parent="1">
          <mxGeometry x="720" y="270.25" width="40" height="40" as="geometry" />
        </mxCell>
        <mxCell id="0IdBzElZXlzrHOkdGmgd-286" value="" style="whiteSpace=wrap;html=1;shape=mxgraph.basic.cloud_callout;flipH=0;flipV=1;" vertex="1" parent="1">
          <mxGeometry x="760" y="290.75" width="40" height="40" as="geometry" />
        </mxCell>
        <mxCell id="0IdBzElZXlzrHOkdGmgd-287" value="&lt;font style=&quot;font-size: 20px;&quot;&gt;5&lt;/font&gt;" style="text;html=1;align=center;verticalAlign=middle;resizable=0;points=[];autosize=1;strokeColor=none;fillColor=none;flipH=0;" vertex="1" parent="1">
          <mxGeometry x="763" y="297.75" width="30" height="40" as="geometry" />
        </mxCell>
        <mxCell id="0IdBzElZXlzrHOkdGmgd-288" value="" style="rounded=1;whiteSpace=wrap;html=1;flipH=0;" vertex="1" parent="1">
          <mxGeometry x="730" y="293.75" width="20" height="30" as="geometry" />
        </mxCell>
        <mxCell id="0IdBzElZXlzrHOkdGmgd-289" value="&lt;font style=&quot;font-size: 20px;&quot;&gt;5&lt;/font&gt;" style="text;html=1;align=center;verticalAlign=middle;resizable=0;points=[];autosize=1;strokeColor=none;fillColor=none;" vertex="1" parent="1">
          <mxGeometry x="725" y="290.75" width="30" height="40" as="geometry" />
        </mxCell>
        <mxCell id="0IdBzElZXlzrHOkdGmgd-290" value="" style="shape=actor;whiteSpace=wrap;html=1;fillColor=#FF3333;strokeColor=#b85450;" vertex="1" parent="1">
          <mxGeometry x="92" y="421" width="40" height="40" as="geometry" />
        </mxCell>
        <mxCell id="0IdBzElZXlzrHOkdGmgd-291" value="" style="whiteSpace=wrap;html=1;shape=mxgraph.basic.cloud_callout;flipH=1;" vertex="1" parent="1">
          <mxGeometry x="52" y="401" width="40" height="40" as="geometry" />
        </mxCell>
        <mxCell id="0IdBzElZXlzrHOkdGmgd-292" value="&lt;font style=&quot;font-size: 20px;&quot;&gt;1&lt;/font&gt;" style="text;html=1;align=center;verticalAlign=middle;resizable=0;points=[];autosize=1;strokeColor=none;fillColor=none;" vertex="1" parent="1">
          <mxGeometry x="56" y="399" width="30" height="40" as="geometry" />
        </mxCell>
        <mxCell id="0IdBzElZXlzrHOkdGmgd-293" value="" style="rounded=1;whiteSpace=wrap;html=1;" vertex="1" parent="1">
          <mxGeometry x="103" y="441" width="20" height="30" as="geometry" />
        </mxCell>
        <mxCell id="0IdBzElZXlzrHOkdGmgd-294" value="&lt;font style=&quot;font-size: 20px;&quot;&gt;2&lt;/font&gt;" style="text;html=1;align=center;verticalAlign=middle;resizable=0;points=[];autosize=1;strokeColor=none;fillColor=none;" vertex="1" parent="1">
          <mxGeometry x="97" y="438" width="30" height="40" as="geometry" />
        </mxCell>
        <mxCell id="0IdBzElZXlzrHOkdGmgd-295" value="" style="shape=actor;whiteSpace=wrap;html=1;fillColor=#FF3333;strokeColor=#b85450;" vertex="1" parent="1">
          <mxGeometry x="62" y="501" width="40" height="40" as="geometry" />
        </mxCell>
        <mxCell id="0IdBzElZXlzrHOkdGmgd-296" value="" style="whiteSpace=wrap;html=1;shape=mxgraph.basic.cloud_callout;flipH=1;" vertex="1" parent="1">
          <mxGeometry x="22" y="481" width="40" height="40" as="geometry" />
        </mxCell>
        <mxCell id="0IdBzElZXlzrHOkdGmgd-297" value="&lt;font style=&quot;font-size: 20px;&quot;&gt;5&lt;/font&gt;" style="text;html=1;align=center;verticalAlign=middle;resizable=0;points=[];autosize=1;strokeColor=none;fillColor=none;" vertex="1" parent="1">
          <mxGeometry x="26" y="479" width="30" height="40" as="geometry" />
        </mxCell>
        <mxCell id="0IdBzElZXlzrHOkdGmgd-298" value="" style="rounded=1;whiteSpace=wrap;html=1;" vertex="1" parent="1">
          <mxGeometry x="73" y="521" width="20" height="30" as="geometry" />
        </mxCell>
        <mxCell id="0IdBzElZXlzrHOkdGmgd-299" value="&lt;font style=&quot;font-size: 20px;&quot;&gt;4&lt;/font&gt;" style="text;html=1;align=center;verticalAlign=middle;resizable=0;points=[];autosize=1;strokeColor=none;fillColor=none;" vertex="1" parent="1">
          <mxGeometry x="67" y="518" width="30" height="40" as="geometry" />
        </mxCell>
        <mxCell id="0IdBzElZXlzrHOkdGmgd-300" value="" style="shape=actor;whiteSpace=wrap;html=1;flipH=0;fillColor=#FF3333;strokeColor=#b85450;" vertex="1" parent="1">
          <mxGeometry x="171" y="421" width="40" height="40" as="geometry" />
        </mxCell>
        <mxCell id="0IdBzElZXlzrHOkdGmgd-301" value="" style="whiteSpace=wrap;html=1;shape=mxgraph.basic.cloud_callout;flipH=0;" vertex="1" parent="1">
          <mxGeometry x="211" y="401" width="40" height="40" as="geometry" />
        </mxCell>
        <mxCell id="0IdBzElZXlzrHOkdGmgd-302" value="&lt;font style=&quot;font-size: 20px;&quot;&gt;2&lt;/font&gt;" style="text;html=1;align=center;verticalAlign=middle;resizable=0;points=[];autosize=1;strokeColor=none;fillColor=none;flipH=0;" vertex="1" parent="1">
          <mxGeometry x="215" y="399" width="30" height="40" as="geometry" />
        </mxCell>
        <mxCell id="0IdBzElZXlzrHOkdGmgd-303" value="" style="rounded=1;whiteSpace=wrap;html=1;flipH=0;" vertex="1" parent="1">
          <mxGeometry x="181" y="439" width="20" height="30" as="geometry" />
        </mxCell>
        <mxCell id="0IdBzElZXlzrHOkdGmgd-304" value="&lt;font style=&quot;font-size: 20px;&quot;&gt;3&lt;/font&gt;" style="text;html=1;align=center;verticalAlign=middle;resizable=0;points=[];autosize=1;strokeColor=none;fillColor=none;flipH=0;" vertex="1" parent="1">
          <mxGeometry x="175" y="436" width="30" height="40" as="geometry" />
        </mxCell>
        <mxCell id="0IdBzElZXlzrHOkdGmgd-305" value="" style="shape=actor;whiteSpace=wrap;html=1;flipH=0;fillColor=#FF3333;strokeColor=#b85450;" vertex="1" parent="1">
          <mxGeometry x="202" y="501" width="40" height="40" as="geometry" />
        </mxCell>
        <mxCell id="0IdBzElZXlzrHOkdGmgd-306" value="" style="whiteSpace=wrap;html=1;shape=mxgraph.basic.cloud_callout;flipH=0;" vertex="1" parent="1">
          <mxGeometry x="242" y="481" width="40" height="40" as="geometry" />
        </mxCell>
        <mxCell id="0IdBzElZXlzrHOkdGmgd-307" value="&lt;font style=&quot;font-size: 20px;&quot;&gt;3&lt;/font&gt;" style="text;html=1;align=center;verticalAlign=middle;resizable=0;points=[];autosize=1;strokeColor=none;fillColor=none;flipH=0;" vertex="1" parent="1">
          <mxGeometry x="246" y="479" width="30" height="40" as="geometry" />
        </mxCell>
        <mxCell id="0IdBzElZXlzrHOkdGmgd-308" value="" style="rounded=1;whiteSpace=wrap;html=1;flipH=0;" vertex="1" parent="1">
          <mxGeometry x="213" y="521" width="20" height="30" as="geometry" />
        </mxCell>
        <mxCell id="0IdBzElZXlzrHOkdGmgd-309" value="&lt;font style=&quot;font-size: 20px;&quot;&gt;5&lt;/font&gt;" style="text;html=1;align=center;verticalAlign=middle;resizable=0;points=[];autosize=1;strokeColor=none;fillColor=none;flipH=0;" vertex="1" parent="1">
          <mxGeometry x="207" y="518" width="30" height="40" as="geometry" />
        </mxCell>
        <mxCell id="0IdBzElZXlzrHOkdGmgd-310" value="" style="endArrow=blockThin;startArrow=none;html=1;rounded=0;endFill=1;strokeWidth=1;startFill=0;jumpSize=6;startSize=4;endSize=4;" edge="1" parent="1">
          <mxGeometry width="50" height="50" relative="1" as="geometry">
            <mxPoint x="141" y="441" as="sourcePoint" />
            <mxPoint x="161" y="441" as="targetPoint" />
          </mxGeometry>
        </mxCell>
        <mxCell id="0IdBzElZXlzrHOkdGmgd-311" value="" style="shape=actor;whiteSpace=wrap;html=1;flipH=0;fillColor=#FF3333;strokeColor=#b85450;" vertex="1" parent="1">
          <mxGeometry x="132" y="571" width="40" height="40" as="geometry" />
        </mxCell>
        <mxCell id="0IdBzElZXlzrHOkdGmgd-312" value="" style="whiteSpace=wrap;html=1;shape=mxgraph.basic.cloud_callout;flipH=0;flipV=1;" vertex="1" parent="1">
          <mxGeometry x="172" y="591.5" width="40" height="40" as="geometry" />
        </mxCell>
        <mxCell id="0IdBzElZXlzrHOkdGmgd-313" value="&lt;font style=&quot;font-size: 20px;&quot;&gt;4&lt;/font&gt;" style="text;html=1;align=center;verticalAlign=middle;resizable=0;points=[];autosize=1;strokeColor=none;fillColor=none;flipH=0;" vertex="1" parent="1">
          <mxGeometry x="175" y="598.5" width="30" height="40" as="geometry" />
        </mxCell>
        <mxCell id="0IdBzElZXlzrHOkdGmgd-314" value="" style="rounded=1;whiteSpace=wrap;html=1;flipH=0;" vertex="1" parent="1">
          <mxGeometry x="142" y="594.5" width="20" height="30" as="geometry" />
        </mxCell>
        <mxCell id="0IdBzElZXlzrHOkdGmgd-315" value="&lt;font style=&quot;font-size: 20px;&quot;&gt;1&lt;/font&gt;" style="text;html=1;align=center;verticalAlign=middle;resizable=0;points=[];autosize=1;strokeColor=none;fillColor=none;" vertex="1" parent="1">
          <mxGeometry x="137" y="591.5" width="30" height="40" as="geometry" />
        </mxCell>
        <mxCell id="0IdBzElZXlzrHOkdGmgd-316" value="" style="shape=actor;whiteSpace=wrap;html=1;fillColor=#FF3333;strokeColor=#b85450;" vertex="1" parent="1">
          <mxGeometry x="393" y="420" width="40" height="40" as="geometry" />
        </mxCell>
        <mxCell id="0IdBzElZXlzrHOkdGmgd-317" value="" style="whiteSpace=wrap;html=1;shape=mxgraph.basic.cloud_callout;flipH=1;" vertex="1" parent="1">
          <mxGeometry x="353" y="400" width="40" height="40" as="geometry" />
        </mxCell>
        <mxCell id="0IdBzElZXlzrHOkdGmgd-318" value="&lt;font style=&quot;font-size: 20px;&quot;&gt;1&lt;/font&gt;" style="text;html=1;align=center;verticalAlign=middle;resizable=0;points=[];autosize=1;strokeColor=none;fillColor=none;" vertex="1" parent="1">
          <mxGeometry x="357" y="398" width="30" height="40" as="geometry" />
        </mxCell>
        <mxCell id="0IdBzElZXlzrHOkdGmgd-319" value="" style="rounded=1;whiteSpace=wrap;html=1;" vertex="1" parent="1">
          <mxGeometry x="404" y="441" width="20" height="30" as="geometry" />
        </mxCell>
        <mxCell id="0IdBzElZXlzrHOkdGmgd-320" value="&lt;font style=&quot;font-size: 20px;&quot;&gt;5&lt;/font&gt;" style="text;html=1;align=center;verticalAlign=middle;resizable=0;points=[];autosize=1;strokeColor=none;fillColor=none;" vertex="1" parent="1">
          <mxGeometry x="398" y="438" width="30" height="40" as="geometry" />
        </mxCell>
        <mxCell id="0IdBzElZXlzrHOkdGmgd-321" value="" style="shape=actor;whiteSpace=wrap;html=1;fillColor=#FF3333;strokeColor=#b85450;" vertex="1" parent="1">
          <mxGeometry x="363" y="500" width="40" height="40" as="geometry" />
        </mxCell>
        <mxCell id="0IdBzElZXlzrHOkdGmgd-322" value="" style="whiteSpace=wrap;html=1;shape=mxgraph.basic.cloud_callout;flipH=1;" vertex="1" parent="1">
          <mxGeometry x="323" y="480" width="40" height="40" as="geometry" />
        </mxCell>
        <mxCell id="0IdBzElZXlzrHOkdGmgd-323" value="&lt;font style=&quot;font-size: 20px;&quot;&gt;5&lt;/font&gt;" style="text;html=1;align=center;verticalAlign=middle;resizable=0;points=[];autosize=1;strokeColor=none;fillColor=none;" vertex="1" parent="1">
          <mxGeometry x="327" y="478" width="30" height="40" as="geometry" />
        </mxCell>
        <mxCell id="0IdBzElZXlzrHOkdGmgd-324" value="" style="rounded=1;whiteSpace=wrap;html=1;" vertex="1" parent="1">
          <mxGeometry x="373" y="522" width="20" height="30" as="geometry" />
        </mxCell>
        <mxCell id="0IdBzElZXlzrHOkdGmgd-325" value="&lt;font style=&quot;font-size: 20px;&quot;&gt;4&lt;/font&gt;" style="text;html=1;align=center;verticalAlign=middle;resizable=0;points=[];autosize=1;strokeColor=none;fillColor=none;" vertex="1" parent="1">
          <mxGeometry x="367" y="519" width="30" height="40" as="geometry" />
        </mxCell>
        <mxCell id="0IdBzElZXlzrHOkdGmgd-326" value="" style="shape=actor;whiteSpace=wrap;html=1;flipH=0;fillColor=#97D077;strokeColor=#82b366;" vertex="1" parent="1">
          <mxGeometry x="472" y="420" width="40" height="40" as="geometry" />
        </mxCell>
        <mxCell id="0IdBzElZXlzrHOkdGmgd-327" value="" style="whiteSpace=wrap;html=1;shape=mxgraph.basic.cloud_callout;flipH=0;" vertex="1" parent="1">
          <mxGeometry x="512" y="400" width="40" height="40" as="geometry" />
        </mxCell>
        <mxCell id="0IdBzElZXlzrHOkdGmgd-328" value="&lt;font style=&quot;font-size: 20px;&quot;&gt;2&lt;/font&gt;" style="text;html=1;align=center;verticalAlign=middle;resizable=0;points=[];autosize=1;strokeColor=none;fillColor=none;flipH=0;" vertex="1" parent="1">
          <mxGeometry x="516" y="398" width="30" height="40" as="geometry" />
        </mxCell>
        <mxCell id="0IdBzElZXlzrHOkdGmgd-329" value="" style="rounded=1;whiteSpace=wrap;html=1;flipH=0;" vertex="1" parent="1">
          <mxGeometry x="483" y="441" width="20" height="30" as="geometry" />
        </mxCell>
        <mxCell id="0IdBzElZXlzrHOkdGmgd-330" value="&lt;font style=&quot;font-size: 20px;&quot;&gt;2&lt;/font&gt;" style="text;html=1;align=center;verticalAlign=middle;resizable=0;points=[];autosize=1;strokeColor=none;fillColor=none;flipH=0;" vertex="1" parent="1">
          <mxGeometry x="477" y="438" width="30" height="40" as="geometry" />
        </mxCell>
        <mxCell id="0IdBzElZXlzrHOkdGmgd-331" value="" style="shape=actor;whiteSpace=wrap;html=1;flipH=0;fillColor=#97D077;strokeColor=#82b366;" vertex="1" parent="1">
          <mxGeometry x="503" y="500" width="40" height="40" as="geometry" />
        </mxCell>
        <mxCell id="0IdBzElZXlzrHOkdGmgd-332" value="" style="whiteSpace=wrap;html=1;shape=mxgraph.basic.cloud_callout;flipH=0;" vertex="1" parent="1">
          <mxGeometry x="543" y="480" width="40" height="40" as="geometry" />
        </mxCell>
        <mxCell id="0IdBzElZXlzrHOkdGmgd-333" value="&lt;font style=&quot;font-size: 20px;&quot;&gt;3&lt;/font&gt;" style="text;html=1;align=center;verticalAlign=middle;resizable=0;points=[];autosize=1;strokeColor=none;fillColor=none;flipH=0;" vertex="1" parent="1">
          <mxGeometry x="547" y="478" width="30" height="40" as="geometry" />
        </mxCell>
        <mxCell id="0IdBzElZXlzrHOkdGmgd-334" value="" style="rounded=1;whiteSpace=wrap;html=1;flipH=0;" vertex="1" parent="1">
          <mxGeometry x="514" y="521" width="20" height="30" as="geometry" />
        </mxCell>
        <mxCell id="0IdBzElZXlzrHOkdGmgd-335" value="&lt;font style=&quot;font-size: 20px;&quot;&gt;3&lt;/font&gt;" style="text;html=1;align=center;verticalAlign=middle;resizable=0;points=[];autosize=1;strokeColor=none;fillColor=none;flipH=0;" vertex="1" parent="1">
          <mxGeometry x="508" y="518" width="30" height="40" as="geometry" />
        </mxCell>
        <mxCell id="0IdBzElZXlzrHOkdGmgd-337" value="" style="shape=actor;whiteSpace=wrap;html=1;flipH=0;fillColor=#FF3333;strokeColor=#b85450;" vertex="1" parent="1">
          <mxGeometry x="433" y="570" width="40" height="40" as="geometry" />
        </mxCell>
        <mxCell id="0IdBzElZXlzrHOkdGmgd-338" value="" style="whiteSpace=wrap;html=1;shape=mxgraph.basic.cloud_callout;flipH=0;flipV=1;" vertex="1" parent="1">
          <mxGeometry x="473" y="590.5" width="40" height="40" as="geometry" />
        </mxCell>
        <mxCell id="0IdBzElZXlzrHOkdGmgd-339" value="&lt;font style=&quot;font-size: 20px;&quot;&gt;4&lt;/font&gt;" style="text;html=1;align=center;verticalAlign=middle;resizable=0;points=[];autosize=1;strokeColor=none;fillColor=none;flipH=0;" vertex="1" parent="1">
          <mxGeometry x="476" y="597.5" width="30" height="40" as="geometry" />
        </mxCell>
        <mxCell id="0IdBzElZXlzrHOkdGmgd-340" value="" style="rounded=1;whiteSpace=wrap;html=1;flipH=0;" vertex="1" parent="1">
          <mxGeometry x="443" y="593.5" width="20" height="30" as="geometry" />
        </mxCell>
        <mxCell id="0IdBzElZXlzrHOkdGmgd-341" value="&lt;font style=&quot;font-size: 20px;&quot;&gt;1&lt;/font&gt;" style="text;html=1;align=center;verticalAlign=middle;resizable=0;points=[];autosize=1;strokeColor=none;fillColor=none;" vertex="1" parent="1">
          <mxGeometry x="438" y="590.5" width="30" height="40" as="geometry" />
        </mxCell>
        <mxCell id="0IdBzElZXlzrHOkdGmgd-342" value="" style="endArrow=none;dashed=1;html=1;rounded=0;" edge="1" parent="1">
          <mxGeometry width="50" height="50" relative="1" as="geometry">
            <mxPoint x="302" y="621" as="sourcePoint" />
            <mxPoint x="301.76" y="399" as="targetPoint" />
          </mxGeometry>
        </mxCell>
        <mxCell id="0IdBzElZXlzrHOkdGmgd-343" value="" style="endArrow=none;dashed=1;html=1;rounded=0;" edge="1" parent="1">
          <mxGeometry width="50" height="50" relative="1" as="geometry">
            <mxPoint x="602" y="621" as="sourcePoint" />
            <mxPoint x="601.76" y="399" as="targetPoint" />
          </mxGeometry>
        </mxCell>
        <mxCell id="0IdBzElZXlzrHOkdGmgd-370" value="" style="endArrow=blockThin;startArrow=none;html=1;rounded=0;endFill=1;strokeWidth=1;startFill=0;jumpSize=6;startSize=4;endSize=4;" edge="1" parent="1">
          <mxGeometry width="50" height="50" relative="1" as="geometry">
            <mxPoint x="200" y="510" as="sourcePoint" />
            <mxPoint x="131" y="471.25" as="targetPoint" />
          </mxGeometry>
        </mxCell>
        <mxCell id="0IdBzElZXlzrHOkdGmgd-371" value="" style="endArrow=blockThin;startArrow=none;html=1;rounded=0;endFill=1;strokeWidth=1;startFill=0;jumpSize=6;startSize=4;endSize=4;" edge="1" parent="1">
          <mxGeometry width="50" height="50" relative="1" as="geometry">
            <mxPoint x="210" y="470" as="sourcePoint" />
            <mxPoint x="220" y="490" as="targetPoint" />
          </mxGeometry>
        </mxCell>
        <mxCell id="0IdBzElZXlzrHOkdGmgd-374" value="" style="endArrow=blockThin;startArrow=none;html=1;rounded=0;endFill=1;strokeWidth=1;startFill=0;jumpSize=6;startSize=4;endSize=4;" edge="1" parent="1">
          <mxGeometry width="50" height="50" relative="1" as="geometry">
            <mxPoint x="450" y="560" as="sourcePoint" />
            <mxPoint x="430" y="470" as="targetPoint" />
          </mxGeometry>
        </mxCell>
        <mxCell id="0IdBzElZXlzrHOkdGmgd-375" value="" style="endArrow=blockThin;startArrow=none;html=1;rounded=0;endFill=1;strokeWidth=1;startFill=0;jumpSize=6;startSize=4;endSize=4;" edge="1" parent="1">
          <mxGeometry width="50" height="50" relative="1" as="geometry">
            <mxPoint x="390" y="470" as="sourcePoint" />
            <mxPoint x="384" y="498" as="targetPoint" />
          </mxGeometry>
        </mxCell>
        <mxCell id="0IdBzElZXlzrHOkdGmgd-376" value="" style="endArrow=blockThin;startArrow=none;html=1;rounded=0;endFill=1;strokeWidth=1;startFill=0;jumpSize=6;startSize=4;endSize=4;" edge="1" parent="1">
          <mxGeometry width="50" height="50" relative="1" as="geometry">
            <mxPoint x="400" y="550" as="sourcePoint" />
            <mxPoint x="430" y="590" as="targetPoint" />
          </mxGeometry>
        </mxCell>
        <mxCell id="0IdBzElZXlzrHOkdGmgd-379" value="" style="shape=actor;whiteSpace=wrap;html=1;fillColor=#97D077;strokeColor=#82b366;" vertex="1" parent="1">
          <mxGeometry x="690" y="420" width="40" height="40" as="geometry" />
        </mxCell>
        <mxCell id="0IdBzElZXlzrHOkdGmgd-380" value="" style="whiteSpace=wrap;html=1;shape=mxgraph.basic.cloud_callout;flipH=1;" vertex="1" parent="1">
          <mxGeometry x="650" y="400" width="40" height="40" as="geometry" />
        </mxCell>
        <mxCell id="0IdBzElZXlzrHOkdGmgd-381" value="&lt;font style=&quot;font-size: 20px;&quot;&gt;1&lt;/font&gt;" style="text;html=1;align=center;verticalAlign=middle;resizable=0;points=[];autosize=1;strokeColor=none;fillColor=none;" vertex="1" parent="1">
          <mxGeometry x="654" y="398" width="30" height="40" as="geometry" />
        </mxCell>
        <mxCell id="0IdBzElZXlzrHOkdGmgd-382" value="" style="rounded=1;whiteSpace=wrap;html=1;" vertex="1" parent="1">
          <mxGeometry x="701" y="441" width="20" height="30" as="geometry" />
        </mxCell>
        <mxCell id="0IdBzElZXlzrHOkdGmgd-383" value="&lt;font style=&quot;font-size: 20px;&quot;&gt;1&lt;/font&gt;" style="text;html=1;align=center;verticalAlign=middle;resizable=0;points=[];autosize=1;strokeColor=none;fillColor=none;" vertex="1" parent="1">
          <mxGeometry x="695" y="438" width="30" height="40" as="geometry" />
        </mxCell>
        <mxCell id="0IdBzElZXlzrHOkdGmgd-384" value="" style="shape=actor;whiteSpace=wrap;html=1;fillColor=#97D077;strokeColor=#82b366;" vertex="1" parent="1">
          <mxGeometry x="660" y="500" width="40" height="40" as="geometry" />
        </mxCell>
        <mxCell id="0IdBzElZXlzrHOkdGmgd-385" value="" style="whiteSpace=wrap;html=1;shape=mxgraph.basic.cloud_callout;flipH=1;" vertex="1" parent="1">
          <mxGeometry x="620" y="480" width="40" height="40" as="geometry" />
        </mxCell>
        <mxCell id="0IdBzElZXlzrHOkdGmgd-386" value="&lt;font style=&quot;font-size: 20px;&quot;&gt;5&lt;/font&gt;" style="text;html=1;align=center;verticalAlign=middle;resizable=0;points=[];autosize=1;strokeColor=none;fillColor=none;" vertex="1" parent="1">
          <mxGeometry x="624" y="478" width="30" height="40" as="geometry" />
        </mxCell>
        <mxCell id="0IdBzElZXlzrHOkdGmgd-387" value="" style="rounded=1;whiteSpace=wrap;html=1;" vertex="1" parent="1">
          <mxGeometry x="670" y="522" width="20" height="30" as="geometry" />
        </mxCell>
        <mxCell id="0IdBzElZXlzrHOkdGmgd-388" value="&lt;font style=&quot;font-size: 20px;&quot;&gt;5&lt;/font&gt;" style="text;html=1;align=center;verticalAlign=middle;resizable=0;points=[];autosize=1;strokeColor=none;fillColor=none;" vertex="1" parent="1">
          <mxGeometry x="664" y="519" width="30" height="40" as="geometry" />
        </mxCell>
        <mxCell id="0IdBzElZXlzrHOkdGmgd-389" value="" style="shape=actor;whiteSpace=wrap;html=1;flipH=0;fillColor=#97D077;strokeColor=#82b366;" vertex="1" parent="1">
          <mxGeometry x="769" y="420" width="40" height="40" as="geometry" />
        </mxCell>
        <mxCell id="0IdBzElZXlzrHOkdGmgd-390" value="" style="whiteSpace=wrap;html=1;shape=mxgraph.basic.cloud_callout;flipH=0;" vertex="1" parent="1">
          <mxGeometry x="809" y="400" width="40" height="40" as="geometry" />
        </mxCell>
        <mxCell id="0IdBzElZXlzrHOkdGmgd-391" value="&lt;font style=&quot;font-size: 20px;&quot;&gt;2&lt;/font&gt;" style="text;html=1;align=center;verticalAlign=middle;resizable=0;points=[];autosize=1;strokeColor=none;fillColor=none;flipH=0;" vertex="1" parent="1">
          <mxGeometry x="813" y="398" width="30" height="40" as="geometry" />
        </mxCell>
        <mxCell id="0IdBzElZXlzrHOkdGmgd-392" value="" style="rounded=1;whiteSpace=wrap;html=1;flipH=0;" vertex="1" parent="1">
          <mxGeometry x="780" y="441" width="20" height="30" as="geometry" />
        </mxCell>
        <mxCell id="0IdBzElZXlzrHOkdGmgd-393" value="&lt;font style=&quot;font-size: 20px;&quot;&gt;2&lt;/font&gt;" style="text;html=1;align=center;verticalAlign=middle;resizable=0;points=[];autosize=1;strokeColor=none;fillColor=none;flipH=0;" vertex="1" parent="1">
          <mxGeometry x="774" y="438" width="30" height="40" as="geometry" />
        </mxCell>
        <mxCell id="0IdBzElZXlzrHOkdGmgd-394" value="" style="shape=actor;whiteSpace=wrap;html=1;flipH=0;fillColor=#97D077;strokeColor=#82b366;" vertex="1" parent="1">
          <mxGeometry x="800" y="500" width="40" height="40" as="geometry" />
        </mxCell>
        <mxCell id="0IdBzElZXlzrHOkdGmgd-395" value="" style="whiteSpace=wrap;html=1;shape=mxgraph.basic.cloud_callout;flipH=0;" vertex="1" parent="1">
          <mxGeometry x="840" y="480" width="40" height="40" as="geometry" />
        </mxCell>
        <mxCell id="0IdBzElZXlzrHOkdGmgd-396" value="&lt;font style=&quot;font-size: 20px;&quot;&gt;3&lt;/font&gt;" style="text;html=1;align=center;verticalAlign=middle;resizable=0;points=[];autosize=1;strokeColor=none;fillColor=none;flipH=0;" vertex="1" parent="1">
          <mxGeometry x="844" y="478" width="30" height="40" as="geometry" />
        </mxCell>
        <mxCell id="0IdBzElZXlzrHOkdGmgd-397" value="" style="rounded=1;whiteSpace=wrap;html=1;flipH=0;" vertex="1" parent="1">
          <mxGeometry x="811" y="521" width="20" height="30" as="geometry" />
        </mxCell>
        <mxCell id="0IdBzElZXlzrHOkdGmgd-398" value="&lt;font style=&quot;font-size: 20px;&quot;&gt;3&lt;/font&gt;" style="text;html=1;align=center;verticalAlign=middle;resizable=0;points=[];autosize=1;strokeColor=none;fillColor=none;flipH=0;" vertex="1" parent="1">
          <mxGeometry x="805" y="518" width="30" height="40" as="geometry" />
        </mxCell>
        <mxCell id="0IdBzElZXlzrHOkdGmgd-399" value="" style="shape=actor;whiteSpace=wrap;html=1;flipH=0;fillColor=#97D077;strokeColor=#82b366;" vertex="1" parent="1">
          <mxGeometry x="730" y="570" width="40" height="40" as="geometry" />
        </mxCell>
        <mxCell id="0IdBzElZXlzrHOkdGmgd-400" value="" style="whiteSpace=wrap;html=1;shape=mxgraph.basic.cloud_callout;flipH=0;flipV=1;" vertex="1" parent="1">
          <mxGeometry x="770" y="590.5" width="40" height="40" as="geometry" />
        </mxCell>
        <mxCell id="0IdBzElZXlzrHOkdGmgd-401" value="&lt;font style=&quot;font-size: 20px;&quot;&gt;4&lt;/font&gt;" style="text;html=1;align=center;verticalAlign=middle;resizable=0;points=[];autosize=1;strokeColor=none;fillColor=none;flipH=0;" vertex="1" parent="1">
          <mxGeometry x="773" y="597.5" width="30" height="40" as="geometry" />
        </mxCell>
        <mxCell id="0IdBzElZXlzrHOkdGmgd-402" value="" style="rounded=1;whiteSpace=wrap;html=1;flipH=0;" vertex="1" parent="1">
          <mxGeometry x="740" y="593.5" width="20" height="30" as="geometry" />
        </mxCell>
        <mxCell id="0IdBzElZXlzrHOkdGmgd-403" value="&lt;font style=&quot;font-size: 20px;&quot;&gt;4&lt;/font&gt;" style="text;html=1;align=center;verticalAlign=middle;resizable=0;points=[];autosize=1;strokeColor=none;fillColor=none;" vertex="1" parent="1">
          <mxGeometry x="735" y="590.5" width="30" height="40" as="geometry" />
        </mxCell>
        <mxCell id="0IdBzElZXlzrHOkdGmgd-408" value="" style="endArrow=none;html=1;rounded=0;" edge="1" parent="1">
          <mxGeometry width="50" height="50" relative="1" as="geometry">
            <mxPoint x="40" y="360" as="sourcePoint" />
            <mxPoint x="840" y="360" as="targetPoint" />
          </mxGeometry>
        </mxCell>
        <mxCell id="0IdBzElZXlzrHOkdGmgd-409" value="&lt;div style=&quot;font-size: 20px;&quot;&gt;&lt;font style=&quot;font-size: 20px;&quot;&gt;Cas 1&lt;/font&gt;&lt;/div&gt;&lt;div style=&quot;font-size: 20px;&quot;&gt;&lt;font style=&quot;font-size: 20px;&quot;&gt;Cas 2&lt;font style=&quot;font-size: 20px;&quot;&gt;&lt;br&gt;&lt;/font&gt;&lt;/font&gt;&lt;/div&gt;" style="text;html=1;align=center;verticalAlign=middle;resizable=0;points=[];autosize=1;strokeColor=none;fillColor=none;" vertex="1" parent="1">
          <mxGeometry x="12" y="330.5" width="80" height="60" as="geometry" />
        </mxCell>
      </root>
    </mxGraphModel>
  </diagram>
</mxfile>
